<?xml version="1.0" encoding="utf-8"?>
<!-- Generator: Adobe Illustrator 23.1.0, SVG Export Plug-In . SVG Version: 6.00 Build 0)  -->
<svg version="1.1" id="Layer_1" xmlns="http://www.w3.org/2000/svg" xmlns:xlink="http://www.w3.org/1999/xlink" x="0px" y="0px"
	 viewBox="0 0 1920 1080" style="enable-background:new 0 0 1920 1080;" xml:space="preserve">
<style type="text/css">
	.st0{fill:url(#SVGID_1_);}
</style>
<linearGradient id="SVGID_1_" gradientUnits="userSpaceOnUse" x1="825.5729" y1="207.0268" x2="2071.6414" y2="677.8264">
	<stop  offset="0" style="stop-color:#9B1414"/>
	<stop  offset="1" style="stop-color:#300606"/>
</linearGradient>
<path class="st0" d="M1540.25,1080c-17.79-37.43-27.75-79.3-27.75-123.5c0-68.48,23.9-131.37,63.81-180.8
	c2.93-2.97,5.79-6.02,8.55-9.14c3.08-3.44,6.05-6.97,8.92-10.59c33.63-42.26,53.72-95.77,53.72-153.97
	c0-122.56-89.08-224.31-206.03-244.04c-1.55-0.26-3.1-0.51-4.66-0.74c-4.87-0.73-9.78-1.31-14.74-1.75
	C1200.66,323.89,1012.75,188.42,909.27,0C854.6-99.56,1920.5,0.5,1920.5,0.5l-1,1080C1919.5,1080.5,1586.49,1177.26,1540.25,1080z"
	/>
<g>
</g>
<g>
</g>
<g>
</g>
<g>
</g>
<g>
</g>
<g>
</g>
<g>
</g>
<g>
</g>
<g>
</g>
<g>
</g>
<g>
</g>
<g>
</g>
<g>
</g>
<g>
</g>
<g>
</g>
</svg>
